<svg version="1.2" baseProfile="tiny-ps" xmlns="http://www.w3.org/2000/svg" viewBox="0 0 150 101" width="150" height="101">
	<title>logo</title>
	<style>
		tspan { white-space:pre }
		.shp0 { fill: #f4b218 } 
	</style>
	<g id="logo">
		<path id="Shape 1" class="shp0" d="M145.44 25.62L136.71 25.62L136.71 18.27C136.71 8.14 128.48 -0.1 118.36 -0.1L88.87 -0.1C83.29 -0.1 78.28 2.42 74.91 6.37C71.55 2.42 66.54 -0.1 60.96 -0.1L31.47 -0.1C21.35 -0.1 13.12 8.14 13.12 18.27L13.12 25.62L4.39 25.62C1.96 25.62 0 27.58 0 30.01L0 89.43C0 91.86 1.96 93.82 4.39 93.82L19.31 93.82L19.31 96.7C19.31 99.13 21.28 101.1 23.7 101.1C26.13 101.1 28.09 99.13 28.09 96.7L28.09 93.82L121.73 93.82L121.73 96.7C121.73 99.13 123.7 101.1 126.12 101.1C128.55 101.1 130.51 99.13 130.51 96.7L130.51 93.82L145.44 93.82C147.86 93.82 149.83 91.86 149.83 89.43L149.83 30.01C149.83 27.58 147.86 25.62 145.44 25.62L145.44 25.62ZM28.61 65.58L28.61 56.83L70.53 56.83L70.53 65.58L28.61 65.58ZM79.3 56.83L121.22 56.83L121.22 65.58L79.3 65.58L79.3 56.83ZM88.87 8.69L118.36 8.69C123.64 8.69 127.93 12.99 127.93 18.27L127.93 27.81C123.9 30.34 121.22 34.83 121.22 39.93L121.22 48.05L79.3 48.05L79.3 18.27C79.3 12.99 83.6 8.69 88.87 8.69L88.87 8.69ZM31.47 8.69L60.96 8.69C66.23 8.69 70.53 12.99 70.53 18.27L70.53 48.05L28.61 48.05L28.61 39.93C28.61 34.83 25.92 30.34 21.9 27.81L21.9 18.27C21.9 12.99 26.19 8.69 31.47 8.69L31.47 8.69ZM141.05 85.04L126.33 85.04C126.26 85.03 126.19 85.03 126.12 85.03C126.06 85.03 125.99 85.03 125.92 85.04L23.91 85.04C23.84 85.03 23.77 85.03 23.7 85.03C23.63 85.03 23.57 85.03 23.5 85.04L8.78 85.04L8.78 34.4L14.3 34.4C17.35 34.4 19.83 36.88 19.83 39.93L19.83 69.97C19.83 72.4 21.79 74.37 24.22 74.37L125.61 74.37C128.03 74.37 130 72.4 130 69.97L130 39.93C130 36.88 132.48 34.4 135.52 34.4L141.05 34.4L141.05 85.04ZM141.05 85.04" />
	</g>
</svg>